<svg width="241" height="39" viewBox="0 0 241 39" fill="white" xmlns="http://www.w3.org/2000/svg">
<path d="M6 18.8365C6 22.5929 7.42232 26.1954 9.95406 28.8516C12.4858 31.5078 15.9196 33 19.5 33C23.0804 33 26.5142 31.5078 29.0459 28.8516C31.5777 26.1954 33 22.5929 33 18.8365C33 18.8365 29.0396 23.2005 24.8801 18.8365C20.7205 14.4725 18.6911 14.8951 14.9343 18.8365C11.1776 22.7779 6 18.8365 6 18.8365Z" fill="#8A8B9D"/>
<path d="M23.28 9.35334C23.28 11.2056 21.8297 13.56 20.04 13.56C18.2504 13.56 16.8 11.2045 16.8 9.35334C16.8 7.50215 18.2504 6 20.04 6C21.8297 6 23.28 7.50108 23.28 9.35334Z" fill="#8A8B9D"/>
<circle cx="19.5" cy="19.5" r="18" stroke="#8A8B9D" stroke-width="3"/>
</svg>
