<svg width="233" height="39" viewBox="0 0 233 39" fill="white" xmlns="http://www.w3.org/2000/svg">
<circle cx="19.5" cy="19.5" r="18" stroke="#8A8B9D" stroke-width="3"/>
<g clip-path="url(#clip0_92_284)">
<path d="M19.5011 33.9956C19.5011 33.9956 26.6139 33.8857 30.3745 28.7811C34.1351 23.6765 32.1296 20.7885 30.9385 19.956C29.7473 19.1235 27.1852 18.7354 25.7752 20.9862C24.8175 22.5071 18.3027 36.0951 10.4606 30.6682C10.463 30.6682 14.7608 34.3544 19.5011 33.9956Z" fill="#8A8B9D"/>
<path d="M19.5013 5.91417C19.5013 5.91417 12.3885 6.02402 8.62786 11.1262C4.86726 16.2284 6.87275 19.1164 8.06146 19.9513C9.25017 20.7862 11.8148 21.1573 13.2271 18.9187C14.1849 17.4002 20.6997 3.81226 28.5418 9.23914C28.5394 9.24402 24.2415 5.55775 19.5013 5.91417Z" fill="#8A8B9D"/>
</g>
<defs>
<clipPath id="clip0_92_284">
<rect width="27" height="28.1304" fill="white" transform="translate(6 5.88965)"/>
</clipPath>
</defs>
</svg>
